<svg xmlns="http://www.w3.org/2000/svg" xmlns:xlink="http://www.w3.org/1999/xlink" viewBox="0 0 454.39 76.11"><defs><style>.cls-1{isolation:isolate;}.cls-2{font-size:52.85px;font-family:BebasKai, Bebas Kai;}.cls-2,.cls-8,.cls-80{fill:#fff;}.cls-3{letter-spacing:0em;}.cls-4{letter-spacing:-0.01em;}.cls-5{letter-spacing:0em;}.cls-6{letter-spacing:0em;}.cls-7{letter-spacing:-0.02em;}.cls-8{font-size:21.14px;font-family:BebasNeue, Bebas Neue;letter-spacing:0.2em;opacity:0.5;}.cls-9{fill:#7d5732;}.cls-10{fill:url(#linear-gradient);}.cls-101,.cls-102,.cls-11,.cls-13,.cls-15,.cls-24,.cls-31,.cls-34,.cls-36,.cls-38,.cls-45,.cls-52,.cls-80,.cls-81,.cls-92{opacity:0.6;}.cls-11,.cls-13,.cls-15,.cls-20,.cls-22,.cls-24,.cls-27,.cls-29,.cls-31,.cls-34,.cls-36,.cls-38,.cls-41,.cls-43,.cls-45,.cls-48,.cls-50,.cls-52,.cls-56,.cls-60,.cls-62,.cls-63,.cls-64,.cls-65,.cls-67,.cls-68,.cls-69,.cls-70,.cls-71,.cls-72,.cls-79,.cls-81,.cls-84,.cls-86,.cls-99{mix-blend-mode:multiply;}.cls-11{fill:url(#linear-gradient-2);}.cls-12{fill:url(#linear-gradient-3);}.cls-13{fill:url(#linear-gradient-4);}.cls-14,.cls-15{fill:url(#linear-gradient-5);}.cls-16,.cls-18{fill:#953d31;}.cls-16,.cls-20,.cls-22,.cls-27,.cls-29,.cls-41,.cls-43,.cls-48,.cls-50,.cls-56,.cls-63,.cls-64,.cls-65,.cls-67,.cls-68,.cls-69,.cls-70,.cls-71,.cls-72{opacity:0.4;}.cls-101,.cls-102,.cls-103,.cls-104,.cls-105,.cls-16,.cls-18,.cls-73,.cls-74,.cls-75,.cls-76,.cls-77,.cls-92,.cls-93,.cls-94{mix-blend-mode:screen;}.cls-17{fill:url(#linear-gradient-7);}.cls-19{fill:url(#linear-gradient-8);}.cls-20{fill:url(#linear-gradient-9);}.cls-21{fill:url(#linear-gradient-10);}.cls-22{fill:url(#linear-gradient-11);}.cls-23{fill:url(#linear-gradient-12);}.cls-24{fill:url(#linear-gradient-13);}.cls-25{fill:url(#linear-gradient-14);}.cls-26{fill:url(#linear-gradient-15);}.cls-27{fill:url(#linear-gradient-16);}.cls-28{fill:url(#linear-gradient-17);}.cls-29{fill:url(#linear-gradient-18);}.cls-30{fill:url(#linear-gradient-19);}.cls-31{fill:url(#linear-gradient-20);}.cls-32{fill:url(#linear-gradient-21);}.cls-33{fill:url(#linear-gradient-22);}.cls-34{fill:url(#linear-gradient-23);}.cls-35{fill:url(#linear-gradient-24);}.cls-36{fill:url(#linear-gradient-25);}.cls-37{fill:url(#linear-gradient-26);}.cls-38{fill:url(#linear-gradient-27);}.cls-39{fill:url(#linear-gradient-28);}.cls-40{fill:url(#linear-gradient-29);}.cls-41{fill:url(#linear-gradient-30);}.cls-42{fill:url(#linear-gradient-31);}.cls-43{fill:url(#linear-gradient-32);}.cls-44{fill:url(#linear-gradient-33);}.cls-45{fill:url(#linear-gradient-34);}.cls-46{fill:url(#linear-gradient-35);}.cls-47{fill:url(#linear-gradient-36);}.cls-48{fill:url(#linear-gradient-37);}.cls-49{fill:url(#linear-gradient-38);}.cls-50{fill:url(#linear-gradient-39);}.cls-51{fill:url(#linear-gradient-40);}.cls-52{fill:url(#linear-gradient-41);}.cls-53{fill:url(#linear-gradient-42);}.cls-54,.cls-62{fill:url(#linear-gradient-43);}.cls-55{fill:url(#linear-gradient-44);}.cls-56{fill:url(#linear-gradient-45);}.cls-57{fill:url(#linear-gradient-46);}.cls-58,.cls-64{fill:url(#linear-gradient-47);}.cls-59,.cls-65{fill:url(#linear-gradient-48);}.cls-60{opacity:0.7;}.cls-61{fill:#865940;}.cls-63{fill:url(#linear-gradient-50);}.cls-66{fill:url(#linear-gradient-53);}.cls-67{fill:url(#linear-gradient-54);}.cls-68{fill:url(#linear-gradient-55);}.cls-69{fill:url(#linear-gradient-56);}.cls-70{fill:url(#linear-gradient-57);}.cls-71{fill:url(#linear-gradient-58);}.cls-72{fill:url(#linear-gradient-59);}.cls-73{fill:url(#linear-gradient-60);}.cls-74{fill:url(#linear-gradient-61);}.cls-75{fill:url(#linear-gradient-62);}.cls-76{fill:url(#linear-gradient-63);}.cls-77{fill:url(#linear-gradient-64);}.cls-78{fill:url(#linear-gradient-65);}.cls-79{fill:url(#linear-gradient-66);}.cls-81{fill:#9d9fa2;}.cls-82{fill:#dcddde;}.cls-83{fill:url(#linear-gradient-67);}.cls-84{fill:url(#linear-gradient-68);}.cls-85{fill:url(#linear-gradient-69);}.cls-87{fill:url(#linear-gradient-70);}.cls-88{fill:#de9b78;}.cls-89{fill:#efb886;}.cls-90{fill:#ffc39a;}.cls-91{fill:url(#linear-gradient-71);}.cls-92{fill:url(#linear-gradient-73);}.cls-93,.cls-94{opacity:0.9;}.cls-93{fill:url(#linear-gradient-74);}.cls-94{fill:url(#linear-gradient-75);}.cls-95{fill:#252627;}.cls-96{fill:#4b4b4c;}.cls-97{fill:#666567;}.cls-98{fill:url(#linear-gradient-76);}.cls-99{fill:url(#linear-gradient-77);}.cls-100{fill:url(#linear-gradient-78);}.cls-101{fill:url(#linear-gradient-79);}.cls-102{fill:url(#linear-gradient-80);}.cls-103{fill:url(#linear-gradient-81);}.cls-104{fill:url(#linear-gradient-82);}.cls-105{fill:url(#linear-gradient-83);}</style><linearGradient id="linear-gradient" x1="226.58" y1="56.61" x2="226.05" y2="55.74" gradientTransform="translate(132.5 -143.41) rotate(40.22)" gradientUnits="userSpaceOnUse"><stop offset="0.16" stop-color="#4b1e18"/><stop offset="0.43" stop-color="#632217"/><stop offset="0.96" stop-color="#952b21"/></linearGradient><linearGradient id="linear-gradient-2" x1="226.58" y1="56.61" x2="226.05" y2="55.74" xlink:href="#linear-gradient"/><linearGradient id="linear-gradient-3" x1="225.76" y1="58.21" x2="224.63" y2="58.01" xlink:href="#linear-gradient"/><linearGradient id="linear-gradient-4" x1="225.76" y1="58.22" x2="224.63" y2="58.02" xlink:href="#linear-gradient"/><linearGradient id="linear-gradient-5" x1="220.03" y1="67.31" x2="219.77" y2="66.58" gradientTransform="translate(134.01 -142.3) rotate(38.38)" xlink:href="#linear-gradient"/><linearGradient id="linear-gradient-7" x1="219.12" y1="67.11" x2="218.94" y2="67.62" gradientTransform="translate(134.01 -142.3) rotate(38.38)" gradientUnits="userSpaceOnUse"><stop offset="0.16" stop-color="#4b1e18"/><stop offset="0.86" stop-color="#400900"/></linearGradient><linearGradient id="linear-gradient-8" x1="224.33" y1="75.01" x2="224.76" y2="74.29" gradientTransform="matrix(0.79, 0.61, -0.61, 0.79, 131.96, -142.19)" xlink:href="#linear-gradient"/><linearGradient id="linear-gradient-9" x1="224.27" y1="74.98" x2="224.71" y2="74.26" gradientTransform="matrix(0.79, 0.61, -0.61, 0.79, 131.96, -142.19)" xlink:href="#linear-gradient"/><linearGradient id="linear-gradient-10" x1="222.48" y1="72.71" x2="223.16" y2="72.4" gradientTransform="matrix(0.79, 0.61, -0.61, 0.79, 131.96, -142.19)" xlink:href="#linear-gradient"/><linearGradient id="linear-gradient-11" x1="222.48" y1="72.71" x2="223.16" y2="72.39" gradientTransform="matrix(0.79, 0.61, -0.61, 0.79, 131.96, -142.19)" xlink:href="#linear-gradient"/><linearGradient id="linear-gradient-12" x1="220.7" y1="70.9" x2="220.91" y2="70.34" gradientTransform="matrix(0.79, 0.61, -0.61, 0.79, 131.96, -142.19)" xlink:href="#linear-gradient"/><linearGradient id="linear-gradient-13" x1="220.67" y1="71.11" x2="220.81" y2="70.55" gradientTransform="matrix(0.79, 0.61, -0.61, 0.79, 131.96, -142.19)" xlink:href="#linear-gradient"/><linearGradient id="linear-gradient-14" x1="219.38" y1="69.82" x2="219.48" y2="71.92" gradientTransform="matrix(0.79, 0.61, -0.61, 0.79, 131.96, -142.19)" xlink:href="#linear-gradient"/><linearGradient id="linear-gradient-15" x1="357.02" y1="234.2" x2="357.47" y2="233.45" gradientTransform="matrix(0.72, 0.69, -0.69, 0.72, 165.88, -360.77)" xlink:href="#linear-gradient"/><linearGradient id="linear-gradient-16" x1="356.95" y1="234.17" x2="357.41" y2="233.41" gradientTransform="matrix(0.72, 0.69, -0.69, 0.72, 165.88, -360.77)" xlink:href="#linear-gradient"/><linearGradient id="linear-gradient-17" x1="355.09" y1="231.8" x2="355.8" y2="231.47" gradientTransform="matrix(0.72, 0.69, -0.69, 0.72, 165.88, -360.77)" xlink:href="#linear-gradient"/><linearGradient id="linear-gradient-18" x1="355.08" y1="231.79" x2="355.8" y2="231.46" gradientTransform="matrix(0.72, 0.69, -0.69, 0.72, 165.88, -360.77)" xlink:href="#linear-gradient"/><linearGradient id="linear-gradient-19" x1="355.26" y1="187.06" x2="355.47" y2="186.5" gradientTransform="matrix(0.56, 0.83, -0.83, 0.56, 216.4, -349.24)" xlink:href="#linear-gradient"/><linearGradient id="linear-gradient-20" x1="355.23" y1="187.28" x2="355.37" y2="186.72" gradientTransform="matrix(0.56, 0.83, -0.83, 0.56, 216.4, -349.24)" xlink:href="#linear-gradient"/><linearGradient id="linear-gradient-21" x1="353.95" y1="185.98" x2="354.04" y2="188.08" gradientTransform="matrix(0.56, 0.83, -0.83, 0.56, 216.4, -349.24)" xlink:href="#linear-gradient"/><linearGradient id="linear-gradient-22" x1="-206.35" y1="20.38" x2="-206.89" y2="19.5" gradientTransform="matrix(-0.65, -0.76, -0.76, 0.65, 143.64, -132.27)" xlink:href="#linear-gradient"/><linearGradient id="linear-gradient-23" x1="-206.35" y1="20.38" x2="-206.89" y2="19.5" gradientTransform="matrix(-0.65, -0.76, -0.76, 0.65, 143.64, -132.27)" xlink:href="#linear-gradient"/><linearGradient id="linear-gradient-24" x1="-207.17" y1="21.98" x2="-208.3" y2="21.78" gradientTransform="matrix(-0.65, -0.76, -0.76, 0.65, 143.64, -132.27)" xlink:href="#linear-gradient"/><linearGradient id="linear-gradient-25" x1="-207.17" y1="21.99" x2="-208.3" y2="21.79" gradientTransform="matrix(-0.65, -0.76, -0.76, 0.65, 143.64, -132.27)" xlink:href="#linear-gradient"/><linearGradient id="linear-gradient-26" x1="-211.53" y1="17.26" x2="-211.79" y2="16.53" gradientTransform="matrix(-0.62, -0.78, -0.78, 0.62, 142.53, -133.78)" xlink:href="#linear-gradient"/><linearGradient id="linear-gradient-27" x1="-211.53" y1="17.26" x2="-211.79" y2="16.53" gradientTransform="matrix(-0.62, -0.78, -0.78, 0.62, 142.53, -133.78)" xlink:href="#linear-gradient"/><linearGradient id="linear-gradient-28" x1="-212.44" y1="17.06" x2="-212.63" y2="17.57" gradientTransform="matrix(-0.62, -0.78, -0.78, 0.62, 142.53, -133.78)" xlink:href="#linear-gradient-7"/><linearGradient id="linear-gradient-29" x1="-206.56" y1="19.53" x2="-206.12" y2="18.81" gradientTransform="matrix(-0.61, -0.79, -0.79, 0.61, 142.42, -131.73)" xlink:href="#linear-gradient"/><linearGradient id="linear-gradient-30" x1="-206.62" y1="19.5" x2="-206.18" y2="18.78" gradientTransform="matrix(-0.61, -0.79, -0.79, 0.61, 142.42, -131.73)" xlink:href="#linear-gradient"/><linearGradient id="linear-gradient-31" x1="-208.41" y1="17.23" x2="-207.72" y2="16.92" gradientTransform="matrix(-0.61, -0.79, -0.79, 0.61, 142.42, -131.73)" xlink:href="#linear-gradient"/><linearGradient id="linear-gradient-32" x1="-208.41" y1="17.23" x2="-207.73" y2="16.91" gradientTransform="matrix(-0.61, -0.79, -0.79, 0.61, 142.42, -131.73)" xlink:href="#linear-gradient"/><linearGradient id="linear-gradient-33" x1="-210.19" y1="15.42" x2="-209.98" y2="14.86" gradientTransform="matrix(-0.61, -0.79, -0.79, 0.61, 142.42, -131.73)" xlink:href="#linear-gradient"/><linearGradient id="linear-gradient-34" x1="-210.22" y1="15.64" x2="-210.08" y2="15.07" gradientTransform="matrix(-0.61, -0.79, -0.79, 0.61, 142.42, -131.73)" xlink:href="#linear-gradient"/><linearGradient id="linear-gradient-35" x1="-211.5" y1="14.34" x2="-211.41" y2="16.44" gradientTransform="matrix(-0.61, -0.79, -0.79, 0.61, 142.42, -131.73)" xlink:href="#linear-gradient"/><linearGradient id="linear-gradient-36" x1="-77.32" y1="225.17" x2="-76.86" y2="224.42" gradientTransform="matrix(-0.69, -0.72, -0.72, 0.69, 361, -165.65)" xlink:href="#linear-gradient"/><linearGradient id="linear-gradient-37" x1="-77.38" y1="225.13" x2="-76.92" y2="224.38" gradientTransform="matrix(-0.69, -0.72, -0.72, 0.69, 361, -165.65)" xlink:href="#linear-gradient"/><linearGradient id="linear-gradient-38" x1="-79.25" y1="222.76" x2="-78.54" y2="222.43" gradientTransform="matrix(-0.69, -0.72, -0.72, 0.69, 361, -165.65)" xlink:href="#linear-gradient"/><linearGradient id="linear-gradient-39" x1="-79.25" y1="222.76" x2="-78.54" y2="222.43" gradientTransform="matrix(-0.69, -0.72, -0.72, 0.69, 361, -165.65)" xlink:href="#linear-gradient"/><linearGradient id="linear-gradient-40" x1="-71.61" y1="267.78" x2="-71.4" y2="267.22" gradientTransform="matrix(-0.83, -0.56, -0.56, 0.83, 349.47, -216.17)" xlink:href="#linear-gradient"/><linearGradient id="linear-gradient-41" x1="-71.64" y1="268" x2="-71.5" y2="267.44" gradientTransform="matrix(-0.83, -0.56, -0.56, 0.83, 349.47, -216.17)" xlink:href="#linear-gradient"/><linearGradient id="linear-gradient-42" x1="-72.92" y1="266.7" x2="-72.83" y2="268.8" gradientTransform="matrix(-0.83, -0.56, -0.56, 0.83, 349.47, -216.17)" xlink:href="#linear-gradient"/><linearGradient id="linear-gradient-43" x1="229.29" y1="75.15" x2="229.29" y2="71.33" gradientTransform="translate(129.9 -146.67) rotate(45)" gradientUnits="userSpaceOnUse"><stop offset="0" stop-color="#eed5b0"/><stop offset="0.66" stop-color="#b98468"/><stop offset="1" stop-color="#4b1e18"/></linearGradient><linearGradient id="linear-gradient-44" x1="229.29" y1="45.44" x2="229.29" y2="78.22" xlink:href="#linear-gradient-43"/><linearGradient id="linear-gradient-45" x1="229.38" y1="45.44" x2="229.38" y2="78.22" xlink:href="#linear-gradient-43"/><linearGradient id="linear-gradient-46" x1="229.29" y1="45.44" x2="229.29" y2="78.22" xlink:href="#linear-gradient-43"/><linearGradient id="linear-gradient-47" x1="229.29" y1="70.41" x2="229.29" y2="62.74" xlink:href="#linear-gradient-43"/><linearGradient id="linear-gradient-48" x1="229.29" y1="73.63" x2="229.29" y2="67.4" xlink:href="#linear-gradient-43"/><linearGradient id="linear-gradient-50" x1="229.29" y1="45.44" x2="229.29" y2="78.22" xlink:href="#linear-gradient-43"/><linearGradient id="linear-gradient-53" x1="229.29" y1="74.01" x2="229.29" y2="72.34" xlink:href="#linear-gradient-43"/><linearGradient id="linear-gradient-54" x1="233" y1="35.2" x2="233" y2="67.8" gradientTransform="translate(130.74 -142.99) rotate(47.11)" xlink:href="#linear-gradient-43"/><linearGradient id="linear-gradient-55" x1="222.99" y1="35.2" x2="222.99" y2="67.8" gradientTransform="translate(130.74 -142.99) rotate(47.11)" xlink:href="#linear-gradient-43"/><linearGradient id="linear-gradient-56" x1="224.95" y1="70.41" x2="224.95" y2="62.74" xlink:href="#linear-gradient-43"/><linearGradient id="linear-gradient-57" x1="233.69" y1="70.41" x2="233.69" y2="62.74" xlink:href="#linear-gradient-43"/><linearGradient id="linear-gradient-58" x1="232.88" y1="73.63" x2="232.88" y2="67.41" xlink:href="#linear-gradient-43"/><linearGradient id="linear-gradient-59" x1="226.07" y1="73.63" x2="226.07" y2="67.41" xlink:href="#linear-gradient-43"/><linearGradient id="linear-gradient-60" x1="221.74" y1="53.53" x2="228.54" y2="53.53" xlink:href="#linear-gradient-43"/><linearGradient id="linear-gradient-61" x1="221.74" y1="57.76" x2="228.54" y2="57.76" xlink:href="#linear-gradient-43"/><linearGradient id="linear-gradient-62" x1="221.74" y1="62.7" x2="228.54" y2="62.7" xlink:href="#linear-gradient-43"/><linearGradient id="linear-gradient-63" x1="221.74" y1="67.87" x2="228.54" y2="67.87" xlink:href="#linear-gradient-43"/><linearGradient id="linear-gradient-64" x1="221.74" y1="71.47" x2="228.54" y2="71.47" xlink:href="#linear-gradient-43"/><linearGradient id="linear-gradient-65" x1="229.29" y1="46.09" x2="229.29" y2="43.82" gradientTransform="translate(129.9 -146.67) rotate(45)" xlink:href="#linear-gradient"/><linearGradient id="linear-gradient-66" x1="229.28" y1="46.09" x2="229.28" y2="43.82" gradientTransform="translate(129.9 -146.67) rotate(45)" xlink:href="#linear-gradient"/><linearGradient id="linear-gradient-67" x1="228.32" y1="36.5" x2="227.91" y2="35.47" gradientTransform="translate(129.9 -146.67) rotate(45)" gradientUnits="userSpaceOnUse"><stop offset="0.15" stop-color="#240200"/><stop offset="0.96" stop-color="#952b21"/></linearGradient><linearGradient id="linear-gradient-68" x1="228.18" y1="36.55" x2="227.77" y2="35.53" xlink:href="#linear-gradient-67"/><linearGradient id="linear-gradient-69" x1="-349.96" y1="36.5" x2="-350.37" y2="35.47" gradientTransform="matrix(-0.71, -0.71, -0.71, 0.71, 45.01, -231.56)" xlink:href="#linear-gradient-67"/><linearGradient id="linear-gradient-70" x1="-350.11" y1="36.55" x2="-350.52" y2="35.53" gradientTransform="matrix(-0.71, -0.71, -0.71, 0.71, 45.01, -231.56)" xlink:href="#linear-gradient-67"/><linearGradient id="linear-gradient-71" x1="229.23" y1="42.2" x2="229.23" y2="35.88" xlink:href="#linear-gradient-67"/><linearGradient id="linear-gradient-73" x1="229.23" y1="40.19" x2="229.23" y2="37.32" gradientTransform="translate(129.9 -146.67) rotate(45)" xlink:href="#linear-gradient"/><linearGradient id="linear-gradient-74" x1="263.14" y1="-48.22" x2="262.15" y2="-48.89" gradientTransform="matrix(0.48, 0.88, -0.88, 0.48, 95.55, -165.03)" xlink:href="#linear-gradient"/><linearGradient id="linear-gradient-75" x1="245.4" y1="6.19" x2="244.9" y2="5.85" gradientTransform="translate(115.85 -154.03) rotate(51.41)" xlink:href="#linear-gradient"/><linearGradient id="linear-gradient-76" x1="229.24" y1="44.59" x2="229.24" y2="42.02" gradientTransform="translate(129.9 -146.67) rotate(45)" xlink:href="#linear-gradient"/><linearGradient id="linear-gradient-77" x1="229.34" y1="44.59" x2="229.34" y2="42.02" gradientTransform="translate(129.9 -146.67) rotate(45)" xlink:href="#linear-gradient"/><linearGradient id="linear-gradient-78" x1="229.33" y1="42.66" x2="229.33" y2="40.49" gradientTransform="translate(129.9 -146.67) rotate(45)" xlink:href="#linear-gradient"/><linearGradient id="linear-gradient-79" x1="229.33" y1="42.37" x2="229.33" y2="40.91" gradientTransform="translate(129.9 -146.67) rotate(45)" xlink:href="#linear-gradient"/><linearGradient id="linear-gradient-80" x1="228.75" y1="42.37" x2="228.75" y2="40.91" gradientTransform="translate(129.9 -146.67) rotate(45)" xlink:href="#linear-gradient"/><linearGradient id="linear-gradient-81" x1="229.28" y1="44.35" x2="229.28" y2="44.08" gradientTransform="translate(129.9 -146.67) rotate(45)" xlink:href="#linear-gradient"/><linearGradient id="linear-gradient-82" x1="229.28" y1="45.73" x2="229.28" y2="45.47" gradientTransform="translate(129.9 -146.67) rotate(45)" xlink:href="#linear-gradient"/><linearGradient id="linear-gradient-83" x1="228.42" y1="48.42" x2="228.42" y2="50.6" xlink:href="#linear-gradient-43"/></defs><title>LogoOceânica</title><g class="cls-1"><g id="Layer_1" data-name="Layer 1"><text class="cls-2" transform="translate(55.61 44.92)">OCEÂNI<tspan class="cls-3" x="122.77" y="0">C</tspan><tspan class="cls-4" x="144.18" y="0">A</tspan><tspan x="165.58" y="0" xml:space="preserve"> -</tspan></text><text class="cls-2" transform="translate(256.12 44.92)">LI<tspan class="cls-5" x="30.18" y="0">T</tspan><tspan class="cls-6" x="48.73" y="0">ORA</tspan><tspan class="cls-7" x="116.22" y="0">L</tspan></text><text class="cls-8" transform="translate(0 72.32)">dedetizadora, Desentupidora, limpadora.</text><path class="cls-9" d="M267.92,46s0,0,0,0-.25,0-.38,0a1.51,1.51,0,0,1,.3-.1s0,0,0,0a2.67,2.67,0,0,0-.5.17h0s0,0,0,0h0l-.07,0h0l-.07,0h-.09s0,0,0,0h.06l-.08,0h-.12s0,0,0,0H267l-.13.09h0c-.2.15-.35.34-.54.49l-.06,0s0,0,0,0h0s0,0,0,0-.05,0,0,0h0l0,0h-.06s0,0,0,0h0A.24.24,0,0,1,266,47H266s0,0,0,0l-.11,0h-.06s0,0,0,0,.18,0,.25,0l.3-.06s0,0,0,0l-.24,0,.09,0,.21,0s0,0,0,0l-.14,0,.06,0,.24,0s0,0,0,0l-.2,0,0,0h0a.71.71,0,0,0,.21,0s0,0,0,0a.5.5,0,0,1-.17,0h0l0,0a1,1,0,0,0,.29-.07s0,0,0,0a.59.59,0,0,1-.23,0l0,0h0a1.21,1.21,0,0,0,.31-.09s0,0,0,0-.2.08-.3.09l0,0h0a1.35,1.35,0,0,0,.34-.11s0,0,0,0l-.17.06-.14,0,.07-.06h0a1.77,1.77,0,0,0,.33-.08s0,0,0,0l-.16,0-.15,0,0,0,.2,0,.2,0s0,0,0,0H267l-.13,0-.14,0,.06-.06.39-.06s0,0,0,0a2.21,2.21,0,0,0-.37,0l.06,0a.86.86,0,0,1,.17,0l.16,0s0,0,0,0l-.19,0-.11,0,0,0c.13,0,.27,0,.4-.07s0,0,0,0l-.36,0,.11-.08.41,0s0,0,0,0l-.38,0,.05,0h.39s0,0,0,0h-.35l.06,0a1.15,1.15,0,0,0,.37,0s0,0,0,0a1.22,1.22,0,0,1-.33,0l.05,0c.14,0,.28,0,.42,0h-.38l0,0A2.22,2.22,0,0,0,267.92,46Z" transform="translate(-14.42 -28.2)"/><path class="cls-10" d="M267.92,45.48s-.07-.11.08-.17a3.6,3.6,0,0,1,2.17.58s0,.18-.09.18-1.44-.34-1.7-.32-.29,0-.35-.06S267.92,45.48,267.92,45.48Z" transform="translate(-14.42 -28.2)"/><path class="cls-11" d="M270.09,46c-.24-.07-.46-.18-.69-.25a3.42,3.42,0,0,0-.62-.13,1.33,1.33,0,0,1-.45-.08.21.21,0,0,1-.13-.21.48.48,0,0,0-.2,0c-.15.06-.08.17-.08.17s0,.16.11.21.08.08.35.06,1.59.32,1.7.32.08,0,.09-.09Z" transform="translate(-14.42 -28.2)"/><path class="cls-12" d="M265.68,46.82s-.06-.13.1-.19a12,12,0,0,1,2.12-1.31s.1,0,.16.15.07.35-.07.38a1.91,1.91,0,0,0-1,.56c-.46.45-1.13.89-1.24.72A.28.28,0,0,1,265.68,46.82Z" transform="translate(-14.42 -28.2)"/><path class="cls-13" d="M268.07,45.49a.55.55,0,0,1-.3.22,1.91,1.91,0,0,0-.68.35c-.2.14-.38.3-.56.45s-.39.45-.62.41-.12-.2-.06-.33l-.07,0c-.16.06-.09.18-.1.19a.28.28,0,0,0,0,.31c.11.17.78-.27,1.24-.72a1.91,1.91,0,0,1,1-.56C268.12,45.82,268.13,45.63,268.07,45.49Z" transform="translate(-14.42 -28.2)"/><path class="cls-14" d="M264,46.42a7.52,7.52,0,0,0,1.24.24c.46,0,.39-.08.5.13s0,.59-.23.52-.28-.13-.48-.2l-1.27-.5Z" transform="translate(-14.42 -28.2)"/><path class="cls-15" d="M265.74,46.79l0,0a.28.28,0,0,1-.07.29c-.13.12-.29,0-.43,0s-.56-.17-.85-.24a.36.36,0,0,1-.19-.08c-.05-.07,0-.19-.1-.24H264l-.24.19,1.27.5c.2.07.29.13.48.2S265.85,47,265.74,46.79Z" transform="translate(-14.42 -28.2)"/><path class="cls-16" d="M264.34,46.59c.24.08.5.14.74.2s.45.08.57-.06A6.56,6.56,0,0,1,264.34,46.59Z" transform="translate(-14.42 -28.2)"/><path class="cls-16" d="M267.83,45.43A5.7,5.7,0,0,0,266,46.65s0,0,0,0a11.64,11.64,0,0,1,1.88-1.22Z" transform="translate(-14.42 -28.2)"/><path class="cls-16" d="M269.23,45.49a6.5,6.5,0,0,0-.77-.15.51.51,0,0,0-.17,0c.28.07.58.09.87.17s.55.19.84.29c0,0,0,0,0,0A3.85,3.85,0,0,0,269.23,45.49Z" transform="translate(-14.42 -28.2)"/><path class="cls-17" d="M264,46.29s.18.15.08.3-.56.07-.62,0,.2-.25.2-.25Z" transform="translate(-14.42 -28.2)"/><path class="cls-18" d="M264.06,46.36a.27.27,0,0,1-.05.23.31.31,0,0,1-.17.09.33.33,0,0,0,.24-.09A.19.19,0,0,0,264.06,46.36Z" transform="translate(-14.42 -28.2)"/><path class="cls-9" d="M263.53,52.56a10.49,10.49,0,0,0,.32-1.19c0-.25.09-.49.14-.74s.13-.41.05-.55c0,0,0,0,0,0v0s0,0,0,0a1.43,1.43,0,0,0-.12.31.61.61,0,0,0-.07.14,2.43,2.43,0,0,1-.2.35s0,0,0,0a1.81,1.81,0,0,0,.18-.27h0c-.06.12-.13.23-.19.34s0,0,0,0,.08-.12.12-.19l0,.2-.32.42h0l.29-.36v0a2.38,2.38,0,0,0-.35.54h0a4.27,4.27,0,0,1,.3-.44l0,.1a3.29,3.29,0,0,0-.36.53h0l.31-.41,0,.17a3.73,3.73,0,0,0-.39.5s0,0,0,0,.22-.25.32-.38l0,.08h0l-.29.36s0,0,0,0a3.85,3.85,0,0,0,.27-.3l0,.06a4.5,4.5,0,0,0-.31.45s0,0,0,0,.12-.16.18-.24l.08-.1,0,.09h0a2.36,2.36,0,0,0-.2.31,1.59,1.59,0,0,1-.18.27s0,0,0,0a.5.5,0,0,0,.12-.13,2.34,2.34,0,0,1-.15.27s0,0,0,0a1.91,1.91,0,0,0,.29-.43l0,.18S263.52,52.57,263.53,52.56Z" transform="translate(-14.42 -28.2)"/><path class="cls-19" d="M263.5,52.82s-.2.2-.13.32a4.93,4.93,0,0,1,.48,1.33c0,.34.18,1.3.33,1.11a4.26,4.26,0,0,0-.36-2.64Z" transform="translate(-14.42 -28.2)"/><path class="cls-20" d="M263.6,53.11c.07-.09.22,0,.31,0a1.76,1.76,0,0,0-.09-.2l-.32-.12s-.2.2-.13.32a4.93,4.93,0,0,1,.48,1.33,3.76,3.76,0,0,0,.2,1A6.12,6.12,0,0,0,263.6,53.11Z" transform="translate(-14.42 -28.2)"/><path class="cls-21" d="M264.08,49.75s.2-.09.24.26a21.25,21.25,0,0,1-.34,2.54c-.05.32-.2.51-.34.44s-.47,0-.22-.55a14.36,14.36,0,0,0,.53-2.53A.22.22,0,0,1,264.08,49.75Z" transform="translate(-14.42 -28.2)"/><path class="cls-22" d="M263.58,52.69c.08-.35.21-.69.28-1s.1-.5.14-.76,0-.42.06-.62a.31.31,0,0,1,.19-.28h.07c-.05-.31-.24-.23-.24-.23a.22.22,0,0,0-.13.16,14.36,14.36,0,0,1-.53,2.53c-.22.46,0,.48.18.53A.33.33,0,0,1,263.58,52.69Z" transform="translate(-14.42 -28.2)"/><path class="cls-23" d="M262.86,47.46l1.36,2.09a.28.28,0,0,1-.06.34c-.16.13-.48.07-.46-.17a12.75,12.75,0,0,0-1-2Z" transform="translate(-14.42 -28.2)"/><path class="cls-24" d="M264.25,49.71c-.07.12-.17.21-.28.08a.85.85,0,0,1-.09-.22,1.87,1.87,0,0,0-.15-.32c-.09-.19-.94-1.28-.75-1.6l-.12-.19-.18.23a12.75,12.75,0,0,1,1,2c0,.24.3.3.46.17A.21.21,0,0,0,264.25,49.71Z" transform="translate(-14.42 -28.2)"/><path class="cls-25" d="M262.83,47a.68.68,0,0,1,0,.64c-.18.29-.56,0-.56,0Z" transform="translate(-14.42 -28.2)"/><path class="cls-16" d="M263,47.81s.58.95.83,1.3.36.5.3.62-.22-.34-.46-.74S263,48,263,47.81Z" transform="translate(-14.42 -28.2)"/><path class="cls-16" d="M264.28,50.07a16.32,16.32,0,0,1-.46,2.82A27.31,27.31,0,0,1,264.28,50.07Z" transform="translate(-14.42 -28.2)"/><path class="cls-16" d="M263.85,53.18a4.72,4.72,0,0,1,.3,2.33A6.91,6.91,0,0,0,263.85,53.18Z" transform="translate(-14.42 -28.2)"/><path class="cls-9" d="M261.39,54v-.08l.06-.12s0,0,0,0h0l0-.15,0,0s0,0,0,0a1.09,1.09,0,0,1,.05-.17.53.53,0,0,0,.06-.1s0,0,0,0,0,0,0,0,0,0,0,0a.69.69,0,0,0,0-.1l.05-.07h0q.11-.24.18-.45l0-.1s0,0,0,0,0,0,0,0c.14-.48.24-1,.39-1.44h0a2.72,2.72,0,0,0-.11.25l0,0c-.06.09-.1.2-.16.3s0,0,.05,0l-.11.16s0,0,0,0l.07-.08h0l-.08.13a2.14,2.14,0,0,0-.13.19s0,0,0,0l0-.06-.11.16s0,0,0,0l.13-.14,0,0-.11.17-.12.17s0,0,0,0l.15-.17v0a4.73,4.73,0,0,0-.28.39s0,0,0,0a2.52,2.52,0,0,1,.21-.25h0a2.43,2.43,0,0,0-.26.44s0,0,0,0,.11-.15.17-.23,0,0,0,0-.17.24-.26.35,0,0,0,0a.93.93,0,0,0,.14-.14l-.06.09a2.11,2.11,0,0,1-.19.23h0l.18-.2,0,.09a.1.1,0,0,1,0,0,3,3,0,0,1-.24.26s0,0,0,0l.19-.17,0,.07a3.4,3.4,0,0,1-.29.26s0,0,0,0l.22-.16v0l-.11.1s-.09.1-.12.1,0,0,0,0,0,0,0,0,.14-.08.17-.09l.06-.06v0l-.09.09c-.06.05-.15.16-.23.17s0,0,0,0,.16-.08.22-.12l.08-.07a.29.29,0,0,1,0,.09l-.24.23s0,0,0,0,.11-.07.15-.11l-.22.24s0,0,0,0a2.39,2.39,0,0,0,.23-.22V54l-.05.07a2,2,0,0,1-.25.25s0,0,0,0a1.31,1.31,0,0,0,.21-.2.6.6,0,0,0,.08-.08h0l-.09.14a1.26,1.26,0,0,1-.3.38s0,0,0,0,.16-.15.22-.23a2.56,2.56,0,0,0,.2-.26S261.4,54,261.39,54Z" transform="translate(-14.42 -28.2)"/><path class="cls-26" d="M261.35,53.87s-.23.19-.17.32a5.06,5.06,0,0,1,.35,1.43c0,.37.05,1.39.23,1.2a4.49,4.49,0,0,0-.08-2.78Z" transform="translate(-14.42 -28.2)"/><path class="cls-27" d="M261.42,54.18c.09-.08.23,0,.33.07s-.05-.14-.07-.21l-.33-.17s-.23.19-.17.32a5.06,5.06,0,0,1,.35,1.43,3.73,3.73,0,0,0,.1,1.1A6.08,6.08,0,0,0,261.42,54.18Z" transform="translate(-14.42 -28.2)"/><path class="cls-28" d="M262.3,50.75s.22-.08.22.29a22.56,22.56,0,0,1-.63,2.61c-.1.33-.27.5-.4.42s-.49-.1-.17-.6a16.35,16.35,0,0,0,.83-2.57A.22.22,0,0,1,262.3,50.75Z" transform="translate(-14.42 -28.2)"/><path class="cls-29" d="M261.45,53.74c.12-.35.29-.69.41-1.05s.16-.52.23-.78.08-.43.13-.64a.32.32,0,0,1,.23-.27h.07c0-.33-.22-.26-.22-.26a.22.22,0,0,0-.15.15,16.35,16.35,0,0,1-.83,2.57c-.29.45,0,.5.12.57A.39.39,0,0,1,261.45,53.74Z" transform="translate(-14.42 -28.2)"/><path class="cls-30" d="M262,48.26l.65,2.4a.29.29,0,0,1-.16.31c-.2.07-.49-.08-.39-.31a13.07,13.07,0,0,0-.34-2.25Z" transform="translate(-14.42 -28.2)"/><path class="cls-31" d="M262.59,50.83c-.11.09-.23.14-.29,0a.6.6,0,0,1,0-.23c0-.12,0-.24,0-.36s-.51-1.51-.22-1.75l-.06-.21-.24.15a13.07,13.07,0,0,1,.34,2.25c-.1.23.19.38.39.31A.24.24,0,0,0,262.59,50.83Z" transform="translate(-14.42 -28.2)"/><path class="cls-32" d="M262.07,47.85a.67.67,0,0,1-.18.62c-.26.21-.52-.2-.52-.2Z" transform="translate(-14.42 -28.2)"/><path class="cls-16" d="M262,48.64s.25,1.08.38,1.5.19.59.1.68-.11-.39-.21-.85S261.93,48.83,262,48.64Z" transform="translate(-14.42 -28.2)"/><path class="cls-16" d="M262.48,51.1a17.39,17.39,0,0,1-.8,2.88A29.69,29.69,0,0,1,262.48,51.1Z" transform="translate(-14.42 -28.2)"/><path class="cls-16" d="M261.68,54.29a4.94,4.94,0,0,1,.05,2.45A7.3,7.3,0,0,0,261.68,54.29Z" transform="translate(-14.42 -28.2)"/><path class="cls-9" d="M261.48,39.5s0,0,0,0,0,.26,0,.38a1.45,1.45,0,0,0,.11-.29s0,0,0,0a1.58,1.58,0,0,1-.17.49.07.07,0,0,0,0,.05s0,0,0,0v0a.16.16,0,0,1,0,.07h0a.25.25,0,0,1,0,.07v.1s0,0,0,0v-.07l-.06.08a.49.49,0,0,1,0,.12s0,0,0,0a.28.28,0,0,1,0-.09l-.1.14h0a0,0,0,0,1,0,0c-.15.19-.34.35-.5.53a.19.19,0,0,1,0,.07s0,0,0,0v0l0,0v0s0,.05,0,0v0l0,0a.07.07,0,0,0,0,0s0,0,0,0v0l-.06.11v.05s0,0,0,0,0,.07,0,.11v.06s0,0,0,0,0-.17,0-.25a1.36,1.36,0,0,1,.06-.29s0,0,0,0a1,1,0,0,0-.05.24l0-.09c0-.07,0-.14,0-.2s0,0,0,0a.68.68,0,0,0,0,.14.21.21,0,0,1,0-.06l0-.24s0,0,0,0a1.23,1.23,0,0,1,0,.2l0,0v0a.58.58,0,0,1,0-.21s0,0,0,0a.41.41,0,0,0,0,.16v0l0,0a.94.94,0,0,1,.06-.29s0,0,0,0a2,2,0,0,0,0,.24l0,0h0a1.17,1.17,0,0,1,.09-.32s0,0,0,0a2.63,2.63,0,0,0-.08.3l0,0h0a1,1,0,0,1,.1-.35s0,0,0,0,0,.12-.05.18a.65.65,0,0,1,0,.13l.07-.06h0c0-.11.05-.22.07-.33s0,0,0,0,0,.1,0,.15l0,.15,0,0,0-.19a1.17,1.17,0,0,1,.05-.2s0,0,0,0,0,.06,0,.09a.69.69,0,0,1,0,.13l0,.14.06-.07c0-.13.05-.26.06-.39s0,0,0,0,0,.24,0,.36l0-.06a.45.45,0,0,0,0-.16l0-.17s0,0,0,0a1.11,1.11,0,0,1,0,.19s0,.08,0,.12l0-.05c0-.13,0-.26.07-.39s0,0,0,0l-.06.36.09-.12c0-.13,0-.27,0-.41s0,0,0,0,0,.25,0,.38a.21.21,0,0,0,0-.06c0-.13,0-.26,0-.38s0,0,0,0,0,.23,0,.35l0-.06a1.61,1.61,0,0,1,0-.38s0,0,0,0a1.93,1.93,0,0,0,0,.34l0-.05c0-.15,0-.29,0-.43s0,0,0,0,0,.26,0,.4c0,0,0,0,0,0A2.28,2.28,0,0,1,261.48,39.5Z" transform="translate(-14.42 -28.2)"/><path class="cls-33" d="M262,39.51s.11.06.17-.09a3.61,3.61,0,0,0-.59-2.16s-.17,0-.17.08.33,1.44.32,1.71,0,.28.05.35A.36.36,0,0,0,262,39.51Z" transform="translate(-14.42 -28.2)"/><path class="cls-34" d="M261.46,37.34c.07.23.18.45.25.69a3.25,3.25,0,0,1,.13.62,1.44,1.44,0,0,0,.09.45.21.21,0,0,0,.2.13.46.46,0,0,1,0,.19c-.06.15-.17.09-.17.09a.36.36,0,0,1-.22-.11c0-.07-.07-.09-.05-.35s-.33-1.59-.32-1.71a.08.08,0,0,1,.08-.08S261.45,37.31,261.46,37.34Z" transform="translate(-14.42 -28.2)"/><path class="cls-35" d="M260.6,41.74s.13.06.19-.09a12.42,12.42,0,0,0,1.31-2.12s0-.1-.14-.17-.36-.06-.38.07a2,2,0,0,1-.57,1c-.45.46-.88,1.13-.71,1.25A.27.27,0,0,0,260.6,41.74Z" transform="translate(-14.42 -28.2)"/><path class="cls-36" d="M261.94,39.35a.53.53,0,0,0-.22.31,2.31,2.31,0,0,1-.35.68l-.46.56c-.13.16-.45.38-.4.61s.19.12.33.06l0,.08c-.06.15-.18.08-.19.09a.27.27,0,0,1-.3,0c-.17-.12.26-.79.71-1.25a2,2,0,0,0,.57-1C261.6,39.3,261.79,39.3,261.94,39.35Z" transform="translate(-14.42 -28.2)"/><path class="cls-37" d="M261,43.42a8,8,0,0,1-.25-1.24c0-.45.08-.39-.12-.5s-.6,0-.52.23.12.28.19.48.51,1.28.51,1.28Z" transform="translate(-14.42 -28.2)"/><path class="cls-38" d="M260.64,41.68l.05,0a.28.28,0,0,0-.3.08c-.12.12,0,.28,0,.42s.17.57.24.85c0,.06,0,.15.08.19s.19,0,.24.1h0l0,.06-.19.25s-.44-1.08-.51-1.28-.12-.29-.19-.48S260.43,41.58,260.64,41.68Z" transform="translate(-14.42 -28.2)"/><path class="cls-16" d="M260.83,43.08a6.17,6.17,0,0,1-.19-.74c0-.16-.09-.45.06-.57A6.47,6.47,0,0,0,260.83,43.08Z" transform="translate(-14.42 -28.2)"/><path class="cls-16" d="M262,39.59a5.58,5.58,0,0,1-1.22,1.89s0,0,0,0A13.36,13.36,0,0,0,262,39.58S262,39.58,262,39.59Z" transform="translate(-14.42 -28.2)"/><path class="cls-16" d="M261.94,38.2s.11.51.14.76a1.1,1.1,0,0,1,0,.18c-.07-.29-.1-.59-.18-.87s-.19-.56-.28-.84c0,0,0,0,0,0A3.66,3.66,0,0,1,261.94,38.2Z" transform="translate(-14.42 -28.2)"/><path class="cls-39" d="M261.13,43.42s-.15-.18-.3-.08-.06.57,0,.62.24-.2.24-.2Z" transform="translate(-14.42 -28.2)"/><path class="cls-18" d="M261.07,43.36a.27.27,0,0,0-.24.06.3.3,0,0,0-.08.16.31.31,0,0,1,.08-.24A.21.21,0,0,1,261.07,43.36Z" transform="translate(-14.42 -28.2)"/><path class="cls-9" d="M254.86,43.94l.18,0a2.69,2.69,0,0,0-.43.29s0,0,0,0l.27-.15a.49.49,0,0,0-.12.13s0,0,0,0a1.34,1.34,0,0,1,.28-.18,2,2,0,0,0,.3-.2h0l.1,0-.11.08-.24.17s0,.05,0,0,.31-.2.45-.32h.07c-.11.08-.21.18-.31.26s0,.05,0,0a2.6,2.6,0,0,0,.36-.3v0h.08l-.38.32s0,0,0,0,.34-.24.5-.38l.17,0-.41.31s0,0,0,0a3.25,3.25,0,0,0,.52-.37h.1a3.35,3.35,0,0,1-.44.29s0,0,0,0a2.18,2.18,0,0,0,.54-.35h0l-.35.29s0,0,0,0l.41-.31.2,0-.19.13s0,.05,0,0l.35-.2h0a2.48,2.48,0,0,0-.26.19s0,0,0,0a2.39,2.39,0,0,1,.34-.21l.15-.06a2.85,2.85,0,0,0,.31-.12s0,0,0,0h0s0,0,0,0-.4,0-.55,0-.49.09-.73.15a11.53,11.53,0,0,0-1.19.31S254.84,43.94,254.86,43.94Z" transform="translate(-14.42 -28.2)"/><path class="cls-40" d="M254.61,43.93s-.2.2-.32.13a4.93,4.93,0,0,0-1.33-.48c-.35,0-1.31-.19-1.12-.34a4.25,4.25,0,0,1,2.64.36Z" transform="translate(-14.42 -28.2)"/><path class="cls-41" d="M254.32,43.83c.08-.08,0-.22,0-.32l.19.09.13.33s-.2.2-.32.13a4.93,4.93,0,0,0-1.33-.48,4,4,0,0,1-1-.2A5.64,5.64,0,0,1,254.32,43.83Z" transform="translate(-14.42 -28.2)"/><path class="cls-42" d="M257.67,43.35s.1-.21-.26-.25a21.53,21.53,0,0,0-2.54.34c-.32.06-.5.2-.43.34s0,.47.55.22a15.05,15.05,0,0,1,2.52-.53A.21.21,0,0,0,257.67,43.35Z" transform="translate(-14.42 -28.2)"/><path class="cls-43" d="M254.74,43.85c.35-.08.69-.21,1-.29l.77-.14c.2,0,.41,0,.62-.06a.28.28,0,0,0,.28-.18.15.15,0,0,0,0-.07c.32,0,.23.24.23.24a.21.21,0,0,1-.16.12A15.05,15.05,0,0,0,255,44c-.47.23-.49,0-.54-.18A.4.4,0,0,0,254.74,43.85Z" transform="translate(-14.42 -28.2)"/><path class="cls-44" d="M260,44.56l-2.08-1.35a.28.28,0,0,0-.34,0c-.14.16-.08.49.16.46a12.45,12.45,0,0,1,2,1Z" transform="translate(-14.42 -28.2)"/><path class="cls-45" d="M257.71,43.17c-.12.07-.21.18-.08.28a.88.88,0,0,0,.22.1l.33.14c.18.1,1.28,1,1.6.75l.18.12-.22.19a12.45,12.45,0,0,0-2-1c-.24,0-.3-.3-.16-.46A.22.22,0,0,1,257.71,43.17Z" transform="translate(-14.42 -28.2)"/><path class="cls-46" d="M260.38,44.59a.68.68,0,0,0-.64,0c-.29.19,0,.56,0,.56Z" transform="translate(-14.42 -28.2)"/><path class="cls-16" d="M259.61,44.38s-.94-.57-1.3-.83-.5-.36-.62-.3.34.23.74.46S259.41,44.41,259.61,44.38Z" transform="translate(-14.42 -28.2)"/><path class="cls-16" d="M257.36,43.14a16.56,16.56,0,0,0-2.83.47A28.49,28.49,0,0,0,257.36,43.14Z" transform="translate(-14.42 -28.2)"/><path class="cls-16" d="M254.25,43.58a4.8,4.8,0,0,0-2.33-.31A7.17,7.17,0,0,1,254.25,43.58Z" transform="translate(-14.42 -28.2)"/><path class="cls-9" d="M253.42,46h.07l.12-.07s0,0,0,0,0,0,0,0l.15,0,0,0s0,0,0,0l.16,0,.11-.07s0,0,0,0l0,0h0l.1,0,.06,0s0,0,0,0c.15-.06.3-.13.44-.17l.1,0,0,0h0c.48-.14,1-.24,1.44-.39,0,0,0,0,0,0l-.26.11v0l-.31.16s0,0,0,0l-.16.1s0,0,0,0l.09-.08h0l-.12.09-.2.12s0,0,0,0l.06,0-.17.12s0,0,0,0l.14-.12h-.06l-.16.11a1.77,1.77,0,0,1-.17.12s0,0,0,0,.11-.1.18-.15h0a2.76,2.76,0,0,1-.39.28s0,0,0,0l.25-.2h0a2.39,2.39,0,0,1-.43.27s0,0,0,0l.24-.18-.06,0c-.11.09-.24.17-.35.27s0,0,0,0l.14-.14-.09.06a2.09,2.09,0,0,0-.22.2s0,0,0,0l.2-.19-.09,0,0,0c-.09.07-.17.16-.26.24s0,0,0,0,.12-.12.18-.18l-.08,0a3.58,3.58,0,0,0-.26.29s0,0,0,0l.17-.22h0l-.11.11s-.09.08-.1.11,0,0,0,0,0,0,0,0,.08-.15.1-.17l0-.06h0l-.09.09c-.06.06-.16.15-.17.23s0,0,0,0a.5.5,0,0,1,.13-.22l.07-.08-.1,0c-.07.09-.15.17-.22.25s0,0,0,0a1.58,1.58,0,0,1,.12-.15,2.73,2.73,0,0,0-.25.23s0,0,0,0,.14-.16.22-.23h-.11l-.07.06a1.54,1.54,0,0,0-.26.25s0,0,0,0a1,1,0,0,1,.2-.22l.08-.08h0l-.14.1c-.1.07-.32.18-.37.3s0,0,0,0a1,1,0,0,1,.23-.22l.26-.19S253.39,46,253.42,46Z" transform="translate(-14.42 -28.2)"/><path class="cls-47" d="M253.55,46.07s-.18.23-.32.17a5.42,5.42,0,0,0-1.43-.35c-.36,0-1.38,0-1.2-.22a4.44,4.44,0,0,1,2.79.08Z" transform="translate(-14.42 -28.2)"/><path class="cls-48" d="M253.24,46c.08-.09,0-.23-.06-.32l.21.07.16.32s-.18.23-.32.17a5.42,5.42,0,0,0-1.43-.35,4,4,0,0,1-1.09-.09A5.93,5.93,0,0,1,253.24,46Z" transform="translate(-14.42 -28.2)"/><path class="cls-49" d="M256.68,45.12s.07-.22-.3-.22a22.43,22.43,0,0,0-2.6.64c-.33.09-.51.26-.42.4s.09.48.6.17a16.17,16.17,0,0,1,2.56-.84A.24.24,0,0,0,256.68,45.12Z" transform="translate(-14.42 -28.2)"/><path class="cls-50" d="M253.68,46c.36-.12.69-.29,1-.41l.78-.23.64-.13a.31.31,0,0,0,.27-.22.11.11,0,0,0,0-.08c.33,0,.27.22.27.22a.24.24,0,0,1-.16.15,16.17,16.17,0,0,0-2.56.84c-.46.28-.51,0-.58-.13A.39.39,0,0,0,253.68,46Z" transform="translate(-14.42 -28.2)"/><path class="cls-51" d="M259.16,45.46l-2.4-.64a.27.27,0,0,0-.3.16c-.08.19.08.48.3.38a13,13,0,0,1,2.25.35Z" transform="translate(-14.42 -28.2)"/><path class="cls-52" d="M256.59,44.84c-.09.1-.14.23,0,.29a.93.93,0,0,0,.24,0l.35,0c.21,0,1.51.51,1.75.23l.21.05-.15.25a13,13,0,0,0-2.25-.35c-.22.1-.38-.19-.3-.38A.23.23,0,0,1,256.59,44.84Z" transform="translate(-14.42 -28.2)"/><path class="cls-53" d="M259.58,45.36a.68.68,0,0,0-.62.17c-.22.26.2.53.2.53Z" transform="translate(-14.42 -28.2)"/><path class="cls-16" d="M258.78,45.4s-1.08-.26-1.49-.39-.59-.18-.69-.09.39.11.85.2S258.6,45.49,258.78,45.4Z" transform="translate(-14.42 -28.2)"/><path class="cls-16" d="M256.33,45a16.77,16.77,0,0,0-2.89.8A29.72,29.72,0,0,0,256.33,45Z" transform="translate(-14.42 -28.2)"/><path class="cls-16" d="M253.14,45.75a4.94,4.94,0,0,0-2.46-.06A7.62,7.62,0,0,1,253.14,45.75Z" transform="translate(-14.42 -28.2)"/><path class="cls-54" d="M239.82,66s-.54.49.25,1.45h0c1,.79,1.46.26,1.46.26A5.51,5.51,0,0,1,239.82,66Z" transform="translate(-14.42 -28.2)"/><path class="cls-55" d="M250.15,64.55a6.36,6.36,0,0,0,4.34-3.68c2.33-.69,3.28-3.5,3.28-3.5a5.5,5.5,0,0,0,2.94-3.76c2.46-3,0-5.59-.63-6.19s-3.2-3.1-6.19-.63a5.48,5.48,0,0,0-3.76,2.94s-2.81,1-3.5,3.28a6.38,6.38,0,0,0-3.69,4.33S243.81,61.93,250.15,64.55Z" transform="translate(-14.42 -28.2)"/><path class="cls-56" d="M257,45.8a2.45,2.45,0,0,1,1,1.1,8.86,8.86,0,0,0,1.11,1.47,6.71,6.71,0,0,0,1.44,1,2.2,2.2,0,0,1,1,1,4.83,4.83,0,0,1,.28.89,4.93,4.93,0,0,0-1.69-3.78,5.1,5.1,0,0,0-3.52-1.71A1.38,1.38,0,0,1,257,45.8Z" transform="translate(-14.42 -28.2)"/><path class="cls-57" d="M250.15,64.55c-6.34-2.62-7.21-7.21-7.21-7.21s-2.37,1.52-2.34,3.86c0,0,.73,3.12,5.7,5.7C248.64,66.93,250.15,64.55,250.15,64.55Z" transform="translate(-14.42 -28.2)"/><path class="cls-58" d="M250.15,64.55c-6.34-2.62-7.21-7.21-7.21-7.21s-2.37,1.52-2.34,3.86c0,0,.73,3.12,5.7,5.7C248.64,66.93,250.15,64.55,250.15,64.55Z" transform="translate(-14.42 -28.2)"/><path class="cls-59" d="M240.6,61.2a3.57,3.57,0,0,0-.78,4.76,5.51,5.51,0,0,0,1.72,1.72,3.57,3.57,0,0,0,4.76-.78C241.33,64.32,240.6,61.2,240.6,61.2Z" transform="translate(-14.42 -28.2)"/><g class="cls-60"><path class="cls-61" d="M260.16,53.36c-.32-.14-.66-.2-1-.32a7.64,7.64,0,0,1-1.1-.57A10.55,10.55,0,0,1,256.24,51a7.68,7.68,0,0,1-2-3.65s0,0,0,0c.22,3,3.16,5.42,5.93,6C260.13,53.4,260.21,53.38,260.16,53.36Z" transform="translate(-14.42 -28.2)"/><path class="cls-61" d="M255.61,56.31a12.5,12.5,0,0,1-2.77-2,11.58,11.58,0,0,1-1-1.17,4.6,4.6,0,0,1-.9-1.52h0a5.28,5.28,0,0,0,1.76,2.74,8.67,8.67,0,0,0,2.91,2S255.64,56.33,255.61,56.31Z" transform="translate(-14.42 -28.2)"/><path class="cls-61" d="M253.26,59.43a4,4,0,0,1-1.47-.75A13.61,13.61,0,0,1,250,57.3a8.49,8.49,0,0,1-1.25-1.55,6.31,6.31,0,0,1-.93-1.85h0a5.45,5.45,0,0,0,.74,1.76A6.87,6.87,0,0,0,250,57.43a12.78,12.78,0,0,0,1.79,1.39,3.3,3.3,0,0,0,1.45.66S253.32,59.44,253.26,59.43Z" transform="translate(-14.42 -28.2)"/><path class="cls-61" d="M248.45,63.75a9.14,9.14,0,0,1-3-2.31c-.4-.45-.81-.9-1.18-1.39a4.31,4.31,0,0,1-.87-1.53s0,0,0,0A3.46,3.46,0,0,0,244,60a13.8,13.8,0,0,0,1.33,1.62,7.89,7.89,0,0,0,3,2.18S248.48,63.77,248.45,63.75Z" transform="translate(-14.42 -28.2)"/><path class="cls-61" d="M244.87,66.05a13.24,13.24,0,0,1-2-1.62,6.83,6.83,0,0,1-1-1.1,4.08,4.08,0,0,1-.8-1.26s0,0,0,0a2.15,2.15,0,0,0,.45,1,5.93,5.93,0,0,0,1.05,1.29,8.53,8.53,0,0,0,2.29,1.67S244.9,66.06,244.87,66.05Z" transform="translate(-14.42 -28.2)"/><path class="cls-61" d="M258.63,48.55a3.88,3.88,0,0,1-.71-.89.31.31,0,1,1,.54-.29,5,5,0,0,0,1.5,1.48.32.32,0,0,1,.08.43.31.31,0,0,1-.43.08A6.8,6.8,0,0,1,258.63,48.55Z" transform="translate(-14.42 -28.2)"/><path class="cls-61" d="M255.11,52a5.92,5.92,0,0,1-1-1.21.3.3,0,1,1,.54-.28,6.81,6.81,0,0,0,2.09,2.08.3.3,0,1,1-.34.5A9.88,9.88,0,0,1,255.11,52Z" transform="translate(-14.42 -28.2)"/><path class="cls-61" d="M251.8,55.4a3.49,3.49,0,0,1-.64-.8.31.31,0,1,1,.54-.29A4.45,4.45,0,0,0,253,55.62a.3.3,0,0,1,.08.42.31.31,0,0,1-.43.08A6.39,6.39,0,0,1,251.8,55.4Z" transform="translate(-14.42 -28.2)"/><path class="cls-61" d="M248.76,58.43a3.65,3.65,0,0,1-.62-.78.22.22,0,0,1,.1-.29.21.21,0,0,1,.29.09h0a4.56,4.56,0,0,0,1.34,1.33.22.22,0,0,1,.06.31.21.21,0,0,1-.3,0A5.73,5.73,0,0,1,248.76,58.43Z" transform="translate(-14.42 -28.2)"/><path class="cls-61" d="M245,62.23a1.55,1.55,0,0,1-.28-.36.22.22,0,0,1,.09-.3.2.2,0,0,1,.29.09,1.85,1.85,0,0,0,.53.52.21.21,0,0,1,.06.3.22.22,0,0,1-.31.06A3.55,3.55,0,0,1,245,62.23Z" transform="translate(-14.42 -28.2)"/><path class="cls-61" d="M242.09,65.16a1.55,1.55,0,0,1-.28-.36.21.21,0,0,1,.09-.29.22.22,0,0,1,.3.09,1.7,1.7,0,0,0,.52.52.22.22,0,1,1-.24.36A2.79,2.79,0,0,1,242.09,65.16Z" transform="translate(-14.42 -28.2)"/></g><path class="cls-62" d="M239.82,66s-.54.49.25,1.45h0c1,.79,1.46.26,1.46.26A5.51,5.51,0,0,1,239.82,66Z" transform="translate(-14.42 -28.2)"/><path class="cls-63" d="M257.77,57.37a5.5,5.5,0,0,0,2.94-3.76,4.64,4.64,0,0,0,1-1.89,1.92,1.92,0,0,1-.77.61,3.52,3.52,0,0,1-3.24-.61,7.15,7.15,0,0,1-1.85-1.91,4,4,0,0,1-.79-2.53,1.89,1.89,0,0,1,1.9-1.53h.24a4,4,0,0,0-3.29,1,5.48,5.48,0,0,0-3.76,2.94s-2.81,1-3.5,3.28a6.38,6.38,0,0,0-3.69,4.33s.87,4.59,7.21,7.21a6.36,6.36,0,0,0,4.34-3.68C256.82,60.18,257.77,57.37,257.77,57.37Zm-4.31-9.14a8.19,8.19,0,0,1,1.55,2c.21.28.43.55.66.82a16.16,16.16,0,0,0,2,1.64c.26.18.54.36.82.52a2.57,2.57,0,0,1,.55.38,1,1,0,0,1,.07,1.2c-.61,1-2.14,1-3.16.76a6.5,6.5,0,0,1-4.58-4.1,3,3,0,0,1,0-2.65A1.49,1.49,0,0,1,253.46,48.23Zm-4,3.15a1.1,1.1,0,0,1,1.08.56c.33.44.57.94.9,1.38a10.83,10.83,0,0,0,1.69,1.82c.45.31.92.58,1.38.88.73.48,1.41,1.37.72,2.19a1.88,1.88,0,0,1-1.89.41,6.85,6.85,0,0,1-4-2.58,4.85,4.85,0,0,1-1-2.51C248.34,52.75,248.56,51.51,249.51,51.38Zm.4,10.64a4.92,4.92,0,0,1-2.62-.88,5.92,5.92,0,0,1-1.93-2.08,3.62,3.62,0,0,1-.43-2.37,3.17,3.17,0,0,1,1.16-2.18,1.45,1.45,0,0,1,1.07-.22,1.7,1.7,0,0,1,.89.65,10.57,10.57,0,0,1,.87,1.4,20,20,0,0,0,2.43,2.35,4.71,4.71,0,0,1,1.22,1,1.07,1.07,0,0,1-.11,1.24A3.18,3.18,0,0,1,249.91,62Z" transform="translate(-14.42 -28.2)"/><path class="cls-64" d="M250.15,64.55c-6.34-2.62-7.21-7.21-7.21-7.21s-2.37,1.52-2.34,3.86c0,0,.73,3.12,5.7,5.7C248.64,66.93,250.15,64.55,250.15,64.55Zm-4.32,1.11a4,4,0,0,1-2.17-.89,5.11,5.11,0,0,1-1.46-1.61,3.86,3.86,0,0,1-.59-2.29c.07-.63.56-1.4,1.27-1.34s1.27.85,1.67,1.35c.15.2.31.39.47.57l.8.69.83.74a5.1,5.1,0,0,1,.62.61,1.27,1.27,0,0,1,.33,1A1.71,1.71,0,0,1,245.83,65.66Z" transform="translate(-14.42 -28.2)"/><path class="cls-65" d="M246.3,66.9c-5-2.58-5.7-5.7-5.7-5.7a3.57,3.57,0,0,0-.78,4.76,5.51,5.51,0,0,0,1.72,1.72A3.57,3.57,0,0,0,246.3,66.9Zm-2.5.39a2.67,2.67,0,0,1-2.25-.32,3.14,3.14,0,0,1-1.68-2.48,1.49,1.49,0,0,1,.36-1.19c.29-.26.71,0,1,.15a8.44,8.44,0,0,1,.93.77,7.66,7.66,0,0,1,1.39,1.27C243.91,65.94,244.73,66.93,243.8,67.29Z" transform="translate(-14.42 -28.2)"/><path class="cls-66" d="M239.82,66s-.54.49.25,1.45h0c1,.79,1.46.26,1.46.26A5.51,5.51,0,0,1,239.82,66Z" transform="translate(-14.42 -28.2)"/><path class="cls-67" d="M257.77,57.37a5.5,5.5,0,0,0,2.94-3.76,5,5,0,0,0,.78-1.29A2.7,2.7,0,0,1,260,53.4c.27.51-.19,1.16-.48,1.55a4.13,4.13,0,0,1-2,1.65,1.13,1.13,0,0,0-.49.24,6.13,6.13,0,0,1-.45,1.24,4.08,4.08,0,0,1-.86,1.12,6.29,6.29,0,0,1-1.26.84,2.32,2.32,0,0,0-.89,1.15,5.85,5.85,0,0,1-2.11,2.33,6,6,0,0,1-1.07.47,3.5,3.5,0,0,0-.62.29l-.1.09.42.18a6.36,6.36,0,0,0,4.34-3.68C256.82,60.18,257.77,57.37,257.77,57.37Z" transform="translate(-14.42 -28.2)"/><path class="cls-68" d="M243.58,57.6c0-.17,0-.35.07-.53a4.58,4.58,0,0,1,1-2,5.72,5.72,0,0,1,.91-.93c.33-.25.69-.43,1-.65a1.55,1.55,0,0,0,.54-.51,2.92,2.92,0,0,0,.22-.43,1.76,1.76,0,0,1,.26-.51,4.42,4.42,0,0,1,1-1,2.76,2.76,0,0,1,1-.52,1.17,1.17,0,0,1,.9,0,.89.89,0,0,1,.31.3,3.15,3.15,0,0,1,.92-2.65,3.31,3.31,0,0,1,1.66-.9c.47-.07.9,0,1,.47a2.54,2.54,0,0,1,1-1.59,3.69,3.69,0,0,1,1.1-.47,4.26,4.26,0,0,0-2.59,1.08,5.48,5.48,0,0,0-3.76,2.94s-2.81,1-3.5,3.28a6.38,6.38,0,0,0-3.69,4.33,5.25,5.25,0,0,0,.32,1A1.71,1.71,0,0,0,243.58,57.6Z" transform="translate(-14.42 -28.2)"/><path class="cls-69" d="M240.86,61.6a6.16,6.16,0,0,1,.35-1.39,3,3,0,0,1,.82-1.12c.36-.28.85-.39,1.18-.74l0-.05a5.25,5.25,0,0,1-.32-1s-2.37,1.52-2.34,3.86a3.67,3.67,0,0,0,.21.57A.84.84,0,0,0,240.86,61.6Z" transform="translate(-14.42 -28.2)"/><path class="cls-70" d="M250.15,64.55l-.42-.18a4.47,4.47,0,0,0-.36.47,3.61,3.61,0,0,1-1.12,1,5.35,5.35,0,0,1-1.37.64c-.31.09-.68.09-1,.19l.42.22C248.64,66.93,250.15,64.55,250.15,64.55Z" transform="translate(-14.42 -28.2)"/><path class="cls-71" d="M245.88,66.68a.75.75,0,0,0-.38.23,5.83,5.83,0,0,1-.88.84,5.41,5.41,0,0,1-.92.49l0,0a3.68,3.68,0,0,0,2.65-1.36Z" transform="translate(-14.42 -28.2)"/><path class="cls-72" d="M239.45,63.91a3.74,3.74,0,0,1,.61-1.31,3,3,0,0,1,.48-.52,1,1,0,0,0,.27-.31,3.67,3.67,0,0,1-.21-.57,3.54,3.54,0,0,0-1.26,3.57A4.13,4.13,0,0,1,239.45,63.91Z" transform="translate(-14.42 -28.2)"/><path class="cls-73" d="M251.37,49.19A5.46,5.46,0,0,0,253.69,54,9.81,9.81,0,0,1,251.37,49.19Z" transform="translate(-14.42 -28.2)"/><path class="cls-74" d="M248.52,52.32a5.49,5.49,0,0,0,2.31,4.85A9.83,9.83,0,0,1,248.52,52.32Z" transform="translate(-14.42 -28.2)"/><path class="cls-75" d="M245.27,55.93a4.28,4.28,0,0,0,1.67,4.43A7.16,7.16,0,0,1,245.27,55.93Z" transform="translate(-14.42 -28.2)"/><path class="cls-76" d="M242.06,60.13a4,4,0,0,0,1.56,4.15A6.7,6.7,0,0,1,242.06,60.13Z" transform="translate(-14.42 -28.2)"/><path class="cls-77" d="M240.06,63.52a3.07,3.07,0,0,0,1.2,3.2A5.17,5.17,0,0,1,240.06,63.52Z" transform="translate(-14.42 -28.2)"/><path class="cls-78" d="M262.13,48.72c.38-.48-.1-1.1-.1-1.1l-2.15-2.16s-.62-.47-1.11-.09-.5.57-.29.89a15.26,15.26,0,0,0,1,1.29h0c.07.09.41.43.49.5h0a12.88,12.88,0,0,0,1.29,1C261.56,49.23,261.74,49.21,262.13,48.72Z" transform="translate(-14.42 -28.2)"/><path class="cls-79" d="M259.58,46a8.09,8.09,0,0,0,2.14,2,5.29,5.29,0,0,0,.55.34,1.24,1.24,0,0,0-.24-.67l-2.15-2.16a1.24,1.24,0,0,0-.72-.24A2.29,2.29,0,0,0,259.58,46Z" transform="translate(-14.42 -28.2)"/><path class="cls-80" d="M260.55,45.45a4.21,4.21,0,0,0-2,0c-.56.3-.44.69.07.86a5.57,5.57,0,0,0,2.1-.44Z" transform="translate(-14.42 -28.2)"/><path class="cls-81" d="M260.55,45.45l-.46-.09c0,.19.14.49-.08.54a3.55,3.55,0,0,1-1.17.14c-.22,0-.57-.14-.53-.43,0,0,0,0,0,0-.29.27-.14.57.29.71a5.57,5.57,0,0,0,2.1-.44Z" transform="translate(-14.42 -28.2)"/><path class="cls-82" d="M260,45.41a3,3,0,0,0-1.51.1A7.56,7.56,0,0,1,260,45.41Z" transform="translate(-14.42 -28.2)"/><path class="cls-80" d="M262,46.87a4.12,4.12,0,0,1,0,2c-.3.56-.69.43-.86-.07a5.63,5.63,0,0,1,.44-2.11Z" transform="translate(-14.42 -28.2)"/><path class="cls-81" d="M262,46.87s0,.19.09.46c-.18,0-.48-.14-.54.08a3.87,3.87,0,0,0-.14,1.17c0,.23.14.57.43.53h.05c-.27.29-.57.14-.71-.28a5.63,5.63,0,0,1,.44-2.11Z" transform="translate(-14.42 -28.2)"/><path class="cls-82" d="M262,47.43a3,3,0,0,1-.1,1.52A7.69,7.69,0,0,0,262,47.43Z" transform="translate(-14.42 -28.2)"/><path class="cls-83" d="M266.19,40.71a1.45,1.45,0,0,1,.68-.68c.39-.2-1.48-.65-2.28.16Z" transform="translate(-14.42 -28.2)"/><path class="cls-84" d="M265,39.91a1.2,1.2,0,0,0-.41.28l1.6.52a1.26,1.26,0,0,1,.22-.33A3.07,3.07,0,0,0,265,39.91Z" transform="translate(-14.42 -28.2)"/><path class="cls-85" d="M266.54,41.06a1.45,1.45,0,0,0,.68-.68c.2-.39.65,1.48-.16,2.28Z" transform="translate(-14.42 -28.2)"/><g class="cls-86"><path class="cls-87" d="M266.88,40.83a1.3,1.3,0,0,1-.34.23l.52,1.6a1.26,1.26,0,0,0,.32-.5A2.67,2.67,0,0,0,266.88,40.83Z" transform="translate(-14.42 -28.2)"/></g><path class="cls-88" d="M271.88,41a.16.16,0,0,1,0-.2.17.17,0,0,1,.2,0,.14.14,0,0,1,0,.2A.15.15,0,0,1,271.88,41Z" transform="translate(-14.42 -28.2)"/><path class="cls-88" d="M271.54,41.33a.12.12,0,0,1,0-.16.13.13,0,0,1,.16,0,.1.1,0,0,1,0,.16S271.59,41.39,271.54,41.33Z" transform="translate(-14.42 -28.2)"/><path class="cls-88" d="M271.7,41.2a.13.13,0,0,1,0-.19.13.13,0,0,1,.19,0,.12.12,0,0,1,0,.19A.13.13,0,0,1,271.7,41.2Z" transform="translate(-14.42 -28.2)"/><path class="cls-88" d="M271.38,41.46a.12.12,0,0,1,0-.16.12.12,0,0,1,.16,0,.12.12,0,0,1,0,.17A.12.12,0,0,1,271.38,41.46Z" transform="translate(-14.42 -28.2)"/><path class="cls-88" d="M271.21,41.58a.12.12,0,0,1,0-.16.13.13,0,0,1,.16,0,.12.12,0,0,1,0,.16A.11.11,0,0,1,271.21,41.58Z" transform="translate(-14.42 -28.2)"/><path class="cls-88" d="M271,41.69a.12.12,0,0,1,0-.16.11.11,0,0,1,.15,0,.11.11,0,0,1,0,.16A.12.12,0,0,1,271,41.69Z" transform="translate(-14.42 -28.2)"/><path class="cls-88" d="M270.85,41.79a.1.1,0,1,1,.18-.1.1.1,0,0,1,0,.16A.11.11,0,0,1,270.85,41.79Z" transform="translate(-14.42 -28.2)"/><path class="cls-88" d="M270.66,41.88c0-.06,0-.13,0-.15a.11.11,0,0,1,.15.06.11.11,0,0,1,0,.16A.11.11,0,0,1,270.66,41.88Z" transform="translate(-14.42 -28.2)"/><path class="cls-88" d="M270.47,42a.12.12,0,0,1,0-.15.11.11,0,0,1,.14.07.11.11,0,1,1-.19.08Z" transform="translate(-14.42 -28.2)"/><path class="cls-89" d="M270.27,42a.12.12,0,0,1,.06-.15.13.13,0,0,1,.08.24A.14.14,0,0,1,270.27,42Z" transform="translate(-14.42 -28.2)"/><path class="cls-89" d="M270.07,42.08c0-.07,0-.13.07-.14s.11,0,.13.09a.12.12,0,0,1-.06.15A.13.13,0,0,1,270.07,42.08Z" transform="translate(-14.42 -28.2)"/><path class="cls-89" d="M269.87,42.12A.13.13,0,0,1,270,42a.11.11,0,0,1,.12.1.12.12,0,0,1-.07.15A.12.12,0,0,1,269.87,42.12Z" transform="translate(-14.42 -28.2)"/><path class="cls-89" d="M269.66,42.15a.14.14,0,0,1,.09-.14c.06,0,.11,0,.12.11a.12.12,0,0,1-.09.14C269.72,42.27,269.67,42.22,269.66,42.15Z" transform="translate(-14.42 -28.2)"/><path class="cls-89" d="M269.46,42.17a.1.1,0,0,1,.09-.13.1.1,0,0,1,.11.11.1.1,0,0,1-.09.13A.1.1,0,0,1,269.46,42.17Z" transform="translate(-14.42 -28.2)"/><path class="cls-89" d="M269.25,42.19a.1.1,0,0,1,.09-.13c.06,0,.11,0,.12.11s0,.13-.1.13A.1.1,0,0,1,269.25,42.19Z" transform="translate(-14.42 -28.2)"/><path class="cls-90" d="M268.9,42.23a.1.1,0,0,1,.08-.12.1.1,0,0,1,.09.1c0,.06,0,.11-.07.11S268.91,42.28,268.9,42.23Z" transform="translate(-14.42 -28.2)"/><path class="cls-89" d="M269.07,42.21a.11.11,0,0,1,.08-.12.11.11,0,0,1,.1.1c0,.06,0,.11-.08.11S269.08,42.27,269.07,42.21Z" transform="translate(-14.42 -28.2)"/><path class="cls-90" d="M268.55,42.26a.09.09,0,0,1,.08-.11s.09,0,.1.09a.11.11,0,0,1-.08.12A.11.11,0,0,1,268.55,42.26Z" transform="translate(-14.42 -28.2)"/><path class="cls-90" d="M268.72,42.24a.11.11,0,0,1,.08-.11.11.11,0,0,1,.1.1.1.1,0,0,1-.08.11A.12.12,0,0,1,268.72,42.24Z" transform="translate(-14.42 -28.2)"/><path class="cls-90" d="M268.2,42.31a.11.11,0,0,1,.08-.12.11.11,0,0,1,.1.09.11.11,0,0,1-.08.12C268.25,42.41,268.21,42.36,268.2,42.31Z" transform="translate(-14.42 -28.2)"/><path class="cls-90" d="M268.38,42.28c0-.05,0-.11.07-.11s.09,0,.1.09a.11.11,0,0,1-.07.12A.1.1,0,0,1,268.38,42.28Z" transform="translate(-14.42 -28.2)"/><path class="cls-90" d="M267.85,42.35c0-.06,0-.11.08-.11s.09,0,.1.09a.09.09,0,0,1-.07.11A.1.1,0,0,1,267.85,42.35Z" transform="translate(-14.42 -28.2)"/><path class="cls-90" d="M268,42.33a.1.1,0,0,1,.07-.12.1.1,0,0,1,.1.1s0,.11-.07.11S268,42.39,268,42.33Z" transform="translate(-14.42 -28.2)"/><path class="cls-90" d="M267.68,42.37s0-.11.07-.11a.09.09,0,0,1,.1.09.1.1,0,0,1-.07.12A.11.11,0,0,1,267.68,42.37Z" transform="translate(-14.42 -28.2)"/><path class="cls-90" d="M267.33,42.42a.09.09,0,0,1,.08-.11s.09,0,.1.09,0,.11-.07.11A.1.1,0,0,1,267.33,42.42Z" transform="translate(-14.42 -28.2)"/><path class="cls-90" d="M267.51,42.4a.1.1,0,0,1,.07-.12c.05,0,.09,0,.1.09a.1.1,0,0,1-.07.12A.09.09,0,0,1,267.51,42.4Z" transform="translate(-14.42 -28.2)"/><path class="cls-90" d="M267,42.47s0-.11.07-.11.09,0,.1.09,0,.11-.07.11A.09.09,0,0,1,267,42.47Z" transform="translate(-14.42 -28.2)"/><path class="cls-90" d="M267.16,42.45a.1.1,0,0,1,.07-.12s.09,0,.1.09a.1.1,0,0,1-.07.12C267.21,42.55,267.17,42.51,267.16,42.45Z" transform="translate(-14.42 -28.2)"/><path class="cls-90" d="M266.64,42.53a.1.1,0,0,1,.07-.12c.05,0,.09,0,.1.09a.1.1,0,0,1-.07.12A.12.12,0,0,1,266.64,42.53Z" transform="translate(-14.42 -28.2)"/><path class="cls-90" d="M266.81,42.5a.1.1,0,0,1,.07-.12.12.12,0,0,1,.11.09.11.11,0,0,1-.08.12S266.82,42.56,266.81,42.5Z" transform="translate(-14.42 -28.2)"/><path class="cls-88" d="M266.18,35.33a.14.14,0,0,1,0-.2.14.14,0,0,1,.2,0,.14.14,0,0,1,0,.19A.13.13,0,0,1,266.18,35.33Z" transform="translate(-14.42 -28.2)"/><path class="cls-88" d="M265.87,35.67a.11.11,0,0,1,0-.16.1.1,0,0,1,.16,0,.13.13,0,0,1,0,.16A.13.13,0,0,1,265.87,35.67Z" transform="translate(-14.42 -28.2)"/><path class="cls-88" d="M266,35.51a.14.14,0,0,1,0-.2.15.15,0,1,1,0,.2Z" transform="translate(-14.42 -28.2)"/><path class="cls-88" d="M265.75,35.83a.11.11,0,0,1,0-.16.1.1,0,0,1,.16,0,.11.11,0,0,1,0,.15A.11.11,0,0,1,265.75,35.83Z" transform="translate(-14.42 -28.2)"/><path class="cls-88" d="M265.63,36a.12.12,0,0,1-.05-.16.12.12,0,0,1,.17,0,.13.13,0,0,1,0,.16A.12.12,0,0,1,265.63,36Z" transform="translate(-14.42 -28.2)"/><path class="cls-88" d="M265.52,36.18c-.06,0-.09-.11,0-.16a.11.11,0,0,1,.16,0c.05,0,.08.11.05.15A.12.12,0,0,1,265.52,36.18Z" transform="translate(-14.42 -28.2)"/><path class="cls-88" d="M265.41,36.36a.12.12,0,0,1-.05-.16.12.12,0,0,1,.21.13A.13.13,0,0,1,265.41,36.36Z" transform="translate(-14.42 -28.2)"/><path class="cls-88" d="M265.32,36.54a.1.1,0,0,1-.06-.14.1.1,0,0,1,.15,0c.07,0,.1.09.07.14A.12.12,0,0,1,265.32,36.54Z" transform="translate(-14.42 -28.2)"/><path class="cls-88" d="M265.25,36.74a.11.11,0,1,1,.07-.2.12.12,0,0,1,.08.15A.12.12,0,0,1,265.25,36.74Z" transform="translate(-14.42 -28.2)"/><path class="cls-89" d="M265.18,36.94a.13.13,0,0,1-.09-.14.11.11,0,0,1,.16-.06.12.12,0,0,1,.08.14S265.25,37,265.18,36.94Z" transform="translate(-14.42 -28.2)"/><path class="cls-89" d="M265.13,37.14A.13.13,0,0,1,265,37a.11.11,0,0,1,.15-.07.11.11,0,0,1,.09.14S265.19,37.15,265.13,37.14Z" transform="translate(-14.42 -28.2)"/><path class="cls-89" d="M265.09,37.34a.12.12,0,0,1-.11-.13.13.13,0,0,1,.15-.08c.06,0,.11.08.1.13A.13.13,0,0,1,265.09,37.34Z" transform="translate(-14.42 -28.2)"/><path class="cls-89" d="M265.06,37.55c-.07,0-.12-.06-.11-.12a.12.12,0,0,1,.14-.09.13.13,0,0,1,.11.12A.14.14,0,0,1,265.06,37.55Z" transform="translate(-14.42 -28.2)"/><path class="cls-89" d="M265,37.75a.1.1,0,0,1-.11-.11.1.1,0,0,1,.13-.09.1.1,0,0,1,.11.11A.1.1,0,0,1,265,37.75Z" transform="translate(-14.42 -28.2)"/><path class="cls-89" d="M265,38a.13.13,0,0,1-.12-.12.14.14,0,0,1,.14-.09c.07,0,.12.06.11.12A.1.1,0,0,1,265,38Z" transform="translate(-14.42 -28.2)"/><path class="cls-90" d="M265,38.31c-.05,0-.1-.05-.09-.1s.05-.08.11-.08a.11.11,0,0,1,.1.1A.1.1,0,0,1,265,38.31Z" transform="translate(-14.42 -28.2)"/><path class="cls-89" d="M265,38.14a.11.11,0,0,1-.1-.1A.1.1,0,0,1,265,38c.06,0,.1,0,.09.1S265.06,38.14,265,38.14Z" transform="translate(-14.42 -28.2)"/><path class="cls-90" d="M265,38.66a.11.11,0,0,1-.1-.1.11.11,0,0,1,.12-.08s.1.05.09.1S265,38.66,265,38.66Z" transform="translate(-14.42 -28.2)"/><path class="cls-90" d="M265,38.48s-.1,0-.09-.09a.09.09,0,0,1,.11-.08.11.11,0,0,1,.1.1A.1.1,0,0,1,265,38.48Z" transform="translate(-14.42 -28.2)"/><path class="cls-90" d="M264.9,39c-.06,0-.1-.06-.09-.1a.1.1,0,0,1,.11-.08.11.11,0,0,1,.1.1A.11.11,0,0,1,264.9,39Z" transform="translate(-14.42 -28.2)"/><path class="cls-90" d="M264.92,38.83a.09.09,0,0,1-.09-.1.1.1,0,0,1,.12-.07.09.09,0,0,1,.09.1A.1.1,0,0,1,264.92,38.83Z" transform="translate(-14.42 -28.2)"/><path class="cls-90" d="M264.86,39.35a.1.1,0,0,1-.1-.1.1.1,0,0,1,.12-.07c.06,0,.1,0,.09.1S264.91,39.36,264.86,39.35Z" transform="translate(-14.42 -28.2)"/><path class="cls-90" d="M264.88,39.18c-.06,0-.1,0-.09-.1s0-.08.11-.07a.09.09,0,0,1,.09.1A.09.09,0,0,1,264.88,39.18Z" transform="translate(-14.42 -28.2)"/><path class="cls-90" d="M264.84,39.53a.12.12,0,0,1-.1-.1.11.11,0,0,1,.12-.08c.05,0,.1.06.09.1A.1.1,0,0,1,264.84,39.53Z" transform="translate(-14.42 -28.2)"/><path class="cls-90" d="M264.79,39.88a.12.12,0,0,1-.1-.11.11.11,0,0,1,.12-.07c.06,0,.1,0,.09.1S264.84,39.88,264.79,39.88Z" transform="translate(-14.42 -28.2)"/><path class="cls-90" d="M264.81,39.7c-.06,0-.1-.05-.09-.1a.1.1,0,0,1,.12-.07.11.11,0,0,1,.09.1A.1.1,0,0,1,264.81,39.7Z" transform="translate(-14.42 -28.2)"/><path class="cls-90" d="M264.74,40.22a.11.11,0,0,1-.1-.1.1.1,0,0,1,.12-.07c.06,0,.1.05.09.1A.09.09,0,0,1,264.74,40.22Z" transform="translate(-14.42 -28.2)"/><path class="cls-90" d="M264.76,40.05c-.06,0-.1,0-.09-.1a.11.11,0,1,1,.09.1Z" transform="translate(-14.42 -28.2)"/><path class="cls-90" d="M264.68,40.57c-.06,0-.1-.06-.09-.1a.1.1,0,0,1,.12-.07.09.09,0,0,1,.09.1A.1.1,0,0,1,264.68,40.57Z" transform="translate(-14.42 -28.2)"/><path class="cls-90" d="M264.71,40.4a.1.1,0,0,1-.09-.11.11.11,0,0,1,.12-.07.12.12,0,0,1,.09.11A.11.11,0,0,1,264.71,40.4Z" transform="translate(-14.42 -28.2)"/><path class="cls-91" d="M266.55,44.52a2.59,2.59,0,1,1,0-3.66A2.59,2.59,0,0,1,266.55,44.52Z" transform="translate(-14.42 -28.2)"/><path class="cls-91" d="M266.55,44.52a2.59,2.59,0,1,1,0-3.66A2.59,2.59,0,0,1,266.55,44.52Z" transform="translate(-14.42 -28.2)"/><path class="cls-92" d="M266.36,43.73a1.9,1.9,0,1,1,0-2.68A1.9,1.9,0,0,1,266.36,43.73Z" transform="translate(-14.42 -28.2)"/><path class="cls-93" d="M265,41.4a.43.43,0,0,1-.53-.3c0-.2.16-.39.42-.43a.44.44,0,0,1,.53.3A.43.43,0,0,1,265,41.4Z" transform="translate(-14.42 -28.2)"/><path class="cls-94" d="M264.11,41.3c-.13,0-.26,0-.29-.1A.22.22,0,0,1,264,41a.23.23,0,0,1,.29.1A.22.22,0,0,1,264.11,41.3Z" transform="translate(-14.42 -28.2)"/><path class="cls-95" d="M263.77,40.89c-.35.23-.75.23-.9,0s0-.59.36-.82.75-.23.9,0S264.11,40.66,263.77,40.89Z" transform="translate(-14.42 -28.2)"/><path class="cls-96" d="M263.64,40.58c-.21.14-.45.14-.54,0s0-.36.22-.49.46-.14.54,0S263.86,40.44,263.64,40.58Z" transform="translate(-14.42 -28.2)"/><path class="cls-97" d="M263.61,40.2a.12.12,0,0,1-.16,0s0-.1.07-.14.13,0,.15,0S263.67,40.16,263.61,40.2Z" transform="translate(-14.42 -28.2)"/><path class="cls-95" d="M266.57,43.7c-.22.35-.22.75,0,.89s.59,0,.82-.36.23-.75,0-.9S266.8,43.35,266.57,43.7Z" transform="translate(-14.42 -28.2)"/><path class="cls-96" d="M266.88,43.82c-.14.21-.14.45,0,.54s.36,0,.5-.22.13-.45,0-.54S267,43.61,266.88,43.82Z" transform="translate(-14.42 -28.2)"/><path class="cls-97" d="M267.26,43.85a.12.12,0,0,0,0,.16s.1,0,.14-.07,0-.13,0-.15S267.3,43.79,267.26,43.85Z" transform="translate(-14.42 -28.2)"/><path class="cls-98" d="M262.9,47.83a2.45,2.45,0,0,0-.95-2.36,2.38,2.38,0,0,0-2.35-.95s-.45.11-.41.41a9.24,9.24,0,0,0,3.31,3.3C262.79,48.28,262.9,47.83,262.9,47.83Z" transform="translate(-14.42 -28.2)"/><path class="cls-99" d="M261.74,46.1a2.79,2.79,0,0,0,1.15.73,3.36,3.36,0,0,0-.94-1.36,3,3,0,0,0-1.14-.86A2.56,2.56,0,0,0,261.74,46.1Z" transform="translate(-14.42 -28.2)"/><path class="cls-80" d="M261.34,44.67a4.22,4.22,0,0,0-2-.05c-.56.3-.43.7.07.87A5.6,5.6,0,0,0,261.5,45Z" transform="translate(-14.42 -28.2)"/><path class="cls-81" d="M261.34,44.67s-.19-.05-.46-.09c0,.18.13.48-.08.54a3.6,3.6,0,0,1-1.17.13c-.23,0-.57-.13-.53-.42a.13.13,0,0,1,0-.06c-.29.28-.14.58.28.72A5.6,5.6,0,0,0,261.5,45Z" transform="translate(-14.42 -28.2)"/><path class="cls-82" d="M260.78,44.62a3,3,0,0,0-1.52.1A7.69,7.69,0,0,1,260.78,44.62Z" transform="translate(-14.42 -28.2)"/><path class="cls-80" d="M262.76,46.09a4.21,4.21,0,0,1,0,2c-.3.56-.69.44-.86-.07a5.63,5.63,0,0,1,.44-2.11Z" transform="translate(-14.42 -28.2)"/><path class="cls-81" d="M262.76,46.09s0,.19.09.46c-.19,0-.49-.14-.54.08a3.55,3.55,0,0,0-.14,1.17c0,.22.14.57.43.53h0c-.27.29-.57.14-.71-.29a5.63,5.63,0,0,1,.44-2.11Z" transform="translate(-14.42 -28.2)"/><path class="cls-82" d="M262.8,46.65a3,3,0,0,1-.1,1.51A7.56,7.56,0,0,0,262.8,46.65Z" transform="translate(-14.42 -28.2)"/><path class="cls-100" d="M264.44,46.38c.23-.46-1.18-1.71-1.38-1.89s-1.43-1.62-1.89-1.39-.52,1.68.59,2.68S264.2,46.86,264.44,46.38Z" transform="translate(-14.42 -28.2)"/><path class="cls-101" d="M264,46c.18-.36-2.14-2.67-2.49-2.49s-.4,1.27.45,2S263.85,46.37,264,46Z" transform="translate(-14.42 -28.2)"/><path class="cls-102" d="M263.4,45c-.66-.75-1.64-1.6-1.86-1.49a.27.27,0,0,0-.13.13C261.82,43.52,262.77,44.38,263.4,45Z" transform="translate(-14.42 -28.2)"/><path class="cls-103" d="M259.81,45.69a14.07,14.07,0,0,0,2,2A6.42,6.42,0,0,1,259.81,45.69Z" transform="translate(-14.42 -28.2)"/><path class="cls-104" d="M258.83,46.67a14.74,14.74,0,0,0,2,2A6.42,6.42,0,0,1,258.83,46.67Z" transform="translate(-14.42 -28.2)"/><path class="cls-105" d="M255.25,47.22a5.79,5.79,0,0,0,3.06,4.52A14.64,14.64,0,0,1,255.25,47.22Z" transform="translate(-14.42 -28.2)"/></g></g></svg>